<?xml version="1.0" standalone="no"?>
<!DOCTYPE svg PUBLIC "-//W3C//DTD SVG 20010904//EN"
 "http://www.w3.org/TR/2001/REC-SVG-20010904/DTD/svg10.dtd">
<svg version="1.0" xmlns="http://www.w3.org/2000/svg"
 width="1280.000000pt" height="1068.000000pt" viewBox="0 0 1280.000000 1068.000000"
 preserveAspectRatio="xMidYMid meet">
<metadata>
Created by potrace 1.15, written by Peter Selinger 2001-2017
</metadata>
<g transform="translate(0.000000,1068.000000) scale(0.100000,-0.100000)"
fill="orange" stroke="black">
<path d="M1252 10219 c-29 -5 -78 -20 -108 -34 -30 -14 -58 -25 -63 -25 -4 0
-26 -13 -47 -28 -66 -48 -64 -48 -61 5 2 43 0 48 -21 51 -29 4 -109 -37 -185
-94 -31 -24 -61 -44 -65 -44 -4 0 -18 -19 -29 -42 -17 -34 -22 -38 -22 -20 -1
17 -7 22 -30 22 -21 0 -34 -9 -54 -37 -31 -46 -95 -190 -104 -235 -3 -18 -11
-36 -16 -39 -9 -6 -25 -48 -84 -214 -13 -38 -42 -106 -64 -150 -21 -45 -39
-90 -39 -102 0 -25 -12 -55 -39 -98 -14 -22 -20 -49 -20 -98 l-1 -68 34 6 33
7 -5 -232 c-4 -193 -2 -250 13 -334 31 -183 113 -426 196 -585 29 -55 49 -107
49 -126 0 -36 83 -143 204 -260 39 -38 143 -148 229 -243 l158 -174 -25 -41
c-14 -23 -30 -41 -36 -39 -8 2 -8 -3 0 -18 6 -11 14 -20 19 -20 4 0 14 -12 21
-27 8 -16 27 -40 42 -55 15 -15 28 -31 28 -37 0 -6 20 -34 45 -63 25 -29 53
-63 62 -74 75 -91 193 -220 218 -237 16 -12 25 -15 18 -6 -9 12 -2 22 39 57
l51 43 25 -23 c21 -20 301 -322 371 -402 l26 -29 -27 5 c-15 3 -25 1 -22 -3 3
-5 12 -9 20 -9 17 0 28 -11 139 -135 44 -49 105 -116 136 -150 30 -33 88 -98
128 -144 40 -46 141 -152 225 -235 150 -151 232 -212 310 -230 24 -6 27 -10
21 -29 -4 -12 -10 -43 -12 -69 -4 -40 -2 -47 15 -52 20 -7 20 -8 -4 -61 -21
-45 -24 -66 -22 -127 3 -70 4 -73 29 -76 17 -2 37 6 56 22 l29 25 -4 -60 c-4
-56 -3 -59 19 -59 13 0 38 14 56 32 l33 32 0 -83 0 -83 55 7 55 6 -10 -25 c-5
-14 -6 -26 -1 -26 11 0 32 56 24 64 -4 3 -1 6 5 6 7 0 11 19 10 53 -1 42 4 61
25 92 16 23 23 43 18 48 -16 16 -47 -3 -70 -43 -12 -22 -26 -38 -31 -35 -5 3
-10 -3 -13 -12 -2 -10 -3 0 -1 22 2 22 9 61 16 88 10 41 10 50 -5 64 -15 15
-18 13 -48 -20 -36 -41 -49 -46 -49 -19 0 22 65 130 96 160 13 13 22 27 19 33
-16 24 -52 3 -137 -81 -66 -66 -94 -87 -100 -78 -22 33 9 92 101 191 35 37 42
50 32 60 -9 9 -25 5 -72 -21 -63 -35 -68 -32 -44 25 20 47 13 68 -15 53 -14
-7 -20 -7 -20 0 0 6 -12 16 -27 22 -16 6 -43 25 -60 42 -18 16 -33 26 -33 22
0 -4 -6 -1 -14 6 -7 7 -23 20 -35 28 -21 14 -31 37 -11 25 18 -11 11 1 -20 36
-16 19 -30 39 -30 45 0 15 54 98 114 173 86 108 347 391 361 391 7 0 32 -15
57 -34 24 -19 71 -51 103 -73 69 -44 105 -74 105 -86 0 -4 -15 -40 -34 -80
-92 -197 -117 -324 -97 -488 14 -113 27 -159 45 -159 34 2 80 63 125 166 70
163 122 235 283 395 142 141 143 141 103 135 -22 -4 -50 -14 -62 -22 -12 -8
-29 -14 -38 -14 -8 0 -23 -5 -33 -10 -13 -8 -33 -3 -86 23 l-68 35 73 7 c120
12 237 40 416 99 664 223 743 248 776 250 9 0 17 4 17 8 0 4 7 5 15 2 8 -4 15
-2 15 3 0 5 19 8 43 6 38 -2 39 -1 12 6 -19 6 -23 9 -11 10 11 0 62 14 115 30
156 46 252 72 325 88 38 8 96 23 130 34 33 10 71 19 82 19 12 0 77 13 145 29
200 46 418 75 568 76 74 0 127 1 118 3 -9 2 -17 10 -17 19 0 11 6 14 23 9 12
-3 40 -6 62 -7 l40 -1 -35 -14 -35 -14 34 6 c75 13 151 13 241 -2 127 -21 377
-85 486 -125 49 -17 112 -40 139 -49 142 -50 669 -270 662 -277 -2 -2 -50 -12
-106 -22 -56 -10 -105 -21 -108 -25 -11 -11 50 -6 156 13 l104 19 101 -43
c169 -72 255 -95 354 -95 48 0 111 6 140 14 l52 13 -25 -31 c-65 -80 -164
-215 -188 -255 l-26 -44 -183 -38 c-443 -91 -788 -210 -979 -338 -82 -55 -172
-141 -148 -141 8 0 31 16 50 36 88 92 251 182 464 258 159 56 416 126 590 162
199 41 189 40 180 18 -43 -103 -45 -114 -29 -121 21 -8 28 1 63 79 20 46 26
70 19 74 -7 5 -4 10 9 15 11 4 50 50 87 102 74 104 196 251 203 243 5 -4 -36
-178 -60 -258 l-15 -46 97 5 c85 5 100 9 131 33 19 15 60 41 90 58 68 38 258
122 276 122 19 0 17 27 -2 34 -32 12 -76 5 -198 -34 -152 -48 -236 -82 -277
-110 -16 -12 -32 -20 -35 -18 -2 3 8 56 22 119 l27 114 53 24 c44 19 64 22
105 17 64 -9 267 -67 387 -112 84 -31 260 -108 270 -118 2 -2 -2 -13 -10 -25
-10 -16 -10 -23 0 -33 9 -9 17 -7 37 12 l25 23 56 -37 c31 -21 58 -35 61 -32
3 2 -20 21 -51 42 -31 20 -56 40 -56 43 0 4 27 33 60 66 33 33 60 65 60 72 0
27 -34 11 -84 -39 -85 -86 -76 -83 -143 -50 -138 69 -434 172 -597 207 -15 3
-27 8 -25 10 8 7 250 165 253 165 2 0 14 -20 26 -45 28 -57 76 -99 163 -141
78 -37 206 -70 232 -60 30 11 4 27 -85 53 -45 13 -98 30 -118 39 l-37 16 46
14 c55 16 78 40 89 90 10 43 -2 74 -28 74 -25 0 -42 20 -42 50 0 32 10 46 38
54 29 10 72 -17 72 -44 0 -12 7 -20 16 -20 13 0 12 6 -6 35 l-22 35 36 0 c73
0 106 -78 106 -252 0 -89 3 -108 15 -108 8 0 20 -9 27 -20 7 -11 21 -20 30
-20 26 0 23 45 -4 70 -20 18 -23 34 -28 128 -3 59 -12 118 -19 130 -15 28 -8
40 14 22 16 -13 45 -7 45 10 0 6 -30 25 -66 42 -148 69 -363 42 -469 -60 -20
-19 -45 -31 -73 -34 -24 -4 -74 -25 -115 -49 -119 -71 -210 -119 -215 -115 -2
3 1 33 6 68 20 118 23 220 9 286 l-14 62 31 0 c37 0 76 24 76 47 0 12 -6 14
-27 9 -76 -18 -124 -19 -143 -1 -22 20 -91 133 -113 187 -14 33 -14 37 0 42
13 5 14 17 9 60 -3 29 -1 99 4 156 12 131 44 203 129 294 34 36 61 70 61 75 0
45 -68 -8 -146 -113 -59 -78 -85 -165 -93 -314 l-6 -117 -32 75 c-75 179 -93
264 -93 455 0 297 43 445 140 485 45 19 123 8 162 -22 18 -14 60 -39 94 -56
47 -23 64 -39 74 -64 8 -18 23 -46 34 -63 11 -16 19 -37 18 -46 -2 -9 17 -48
41 -85 50 -78 80 -134 72 -134 -3 0 -29 12 -58 27 -61 31 -172 40 -172 13 0
-8 9 -16 20 -17 79 -11 132 -29 184 -63 55 -35 62 -44 76 -93 11 -39 15 -87
13 -166 l-3 -111 -48 45 c-60 55 -97 61 -97 15 0 -17 7 -47 15 -67 19 -45 20
-43 -13 -43 -36 0 -72 -26 -72 -51 0 -11 11 -30 25 -43 l25 -23 -41 -36 c-39
-34 -45 -57 -13 -57 8 0 22 8 32 18 9 9 32 28 50 40 40 29 41 48 2 70 -48 28
-38 42 30 42 70 0 74 8 35 66 -14 20 -23 39 -20 42 3 3 6 3 8 1 1 -2 19 -23
40 -46 35 -36 38 -43 27 -63 -10 -18 -9 -25 3 -38 22 -21 44 -9 52 28 4 17 14
34 23 37 10 3 32 22 51 42 21 23 31 29 26 16 -20 -55 2 -71 37 -29 13 16 44
51 69 79 85 94 90 108 87 242 -3 137 4 167 35 159 12 -3 87 -8 167 -11 80 -3
154 -8 166 -10 23 -5 40 -63 70 -240 8 -49 26 -128 40 -175 17 -54 24 -96 20
-119 -7 -43 8 -71 39 -71 29 0 38 25 60 170 12 84 43 223 91 416 1 7 54 13
153 16 150 5 181 12 181 44 0 10 -50 12 -257 7 -299 -6 -678 15 -734 40 -19 8
-72 31 -119 52 -47 20 -98 43 -115 51 -16 7 -54 23 -83 34 -96 37 -132 60
-224 145 -50 47 -97 85 -103 85 -6 0 -42 13 -80 30 -74 31 -167 40 -219 20
-45 -17 -102 -82 -126 -145 -28 -75 -43 -257 -38 -442 4 -123 3 -133 -13 -133
-35 0 -41 -35 -37 -219 4 -161 7 -183 32 -261 16 -47 41 -101 56 -120 22 -29
28 -49 33 -111 6 -82 38 -159 112 -269 41 -61 53 -76 36 -43 -18 35 -14 35 40
-2 41 -28 55 -33 66 -24 11 10 11 15 -3 30 -10 11 -13 19 -7 19 5 0 17 15 26
33 15 30 16 31 16 7 0 -22 -5 -51 -24 -137 -4 -19 0 -23 30 -29 51 -9 43 -20
-18 -20 -44 -1 -63 -8 -111 -40 -58 -38 -61 -39 -165 -42 -100 -4 -112 -2
-219 33 -141 46 -141 51 6 53 81 2 82 2 82 28 l0 26 -161 -7 c-176 -8 -173 -9
-311 62 -27 13 -53 21 -58 18 -6 -4 -10 -3 -9 2 3 18 -2 27 -9 16 -8 -13 -288
95 -469 182 -51 25 -97 45 -102 45 -5 0 -33 11 -64 24 -30 14 -79 27 -108 30
-30 2 -97 16 -149 31 -215 60 -345 85 -495 95 -228 15 -245 14 -245 -10 0 -17
-7 -20 -52 -20 -29 0 -84 -5 -123 -10 -38 -5 -106 -14 -150 -20 -306 -39
-1043 -237 -1600 -431 -33 -11 -87 -29 -120 -39 -76 -24 -172 -55 -255 -84
-163 -57 -372 -91 -423 -69 -117 51 -293 166 -389 253 -34 31 -48 43 -103 90
-58 49 -248 228 -408 384 -62 61 -116 109 -122 107 -5 -1 -7 1 -3 5 4 4 -7 24
-26 44 -18 21 -37 44 -42 51 -5 8 -26 25 -46 39 -20 13 -35 26 -34 28 2 2 -30
37 -70 79 -41 42 -74 80 -74 84 0 5 -19 31 -42 59 -24 27 -61 72 -83 100 -22
27 -56 68 -75 89 -19 22 -53 61 -75 87 -22 26 -56 63 -75 83 -19 20 -42 46
-50 58 -8 12 -35 48 -60 80 -50 65 -58 76 -129 183 -28 41 -59 89 -71 105
-101 146 -227 387 -277 532 -14 43 -33 88 -41 100 -15 25 -31 173 -32 301 0
79 1 83 20 77 18 -6 20 -2 18 27 -5 104 46 419 79 482 8 15 13 37 10 47 -3 10
-1 17 5 16 5 -1 15 12 21 28 27 69 128 201 206 270 52 45 137 96 153 90 7 -3
22 1 32 8 22 16 14 57 -11 57 -14 0 -14 2 1 19 10 11 16 28 14 38 -3 14 -13
18 -50 17 l-47 0 29 33 c30 33 44 81 38 124 -2 18 -10 25 -30 27 -24 3 -28 0
-28 -22 0 -13 -5 -37 -11 -53 l-11 -28 -14 30 c-13 29 -13 29 -8 -16 l6 -45
-68 -63 c-48 -44 -69 -71 -70 -88 -1 -25 10 -26 60 -7 27 10 8 -22 -20 -34
-14 -7 -24 -20 -24 -32 0 -11 -7 -23 -15 -26 -8 -4 -15 -11 -15 -17 0 -5 -27
-46 -61 -91 -34 -44 -74 -106 -90 -138 -16 -32 -32 -58 -34 -58 -3 0 -39 27
-80 60 -182 144 -368 209 -602 210 -66 0 -103 4 -103 11 0 5 10 9 22 7 20 -3
30 10 68 84 25 48 58 102 74 120 15 18 25 27 20 19 -5 -9 -3 -12 5 -7 6 4 9
11 7 15 -9 13 23 50 77 89 79 58 85 61 63 27 -11 -17 -25 -34 -33 -38 -7 -4
-13 -16 -13 -27 0 -11 -9 -20 -22 -23 -18 -3 -16 -5 7 -6 17 0 40 -8 53 -16
15 -12 20 -12 17 -3 -2 7 6 25 19 39 18 21 30 26 50 22 21 -4 41 4 84 34 64
44 159 85 242 104 76 18 269 15 360 -5 99 -21 100 -21 100 13 0 24 -6 31 -32
41 -42 15 -394 22 -466 9z m-361 -1172 c55 -17 274 -126 298 -148 15 -15 19
-41 24 -190 3 -96 11 -196 17 -222 7 -26 10 -50 7 -53 -3 -4 -43 -1 -88 5
-124 17 -357 14 -442 -5 -78 -17 -205 -70 -276 -115 -25 -16 -48 -29 -52 -29
-4 0 -13 26 -19 58 -7 31 -16 62 -20 67 -15 19 -33 250 -32 415 1 138 4 167
17 176 55 41 469 70 566 41z m595 -1134 c15 -27 76 -121 137 -211 60 -90 108
-165 106 -166 -2 -2 -36 -20 -75 -39 -164 -82 -365 -245 -483 -392 l-32 -40
-94 98 c-127 132 -365 403 -364 413 0 10 112 107 179 155 124 90 320 171 525
218 67 15 72 13 101 -36z m840 -1078 c76 -82 196 -209 266 -280 l127 -131 -97
-99 c-54 -55 -154 -170 -223 -255 -70 -85 -132 -154 -139 -152 -13 3 6 -21 71
-93 20 -22 62 -69 95 -105 32 -36 77 -84 99 -107 22 -23 75 -78 117 -122 43
-45 82 -81 88 -81 5 0 10 -4 10 -8 0 -5 11 -22 25 -38 38 -44 20 -41 -32 6
-66 59 -273 272 -273 281 0 4 -24 32 -52 61 -109 112 -217 235 -211 242 3 3 0
6 -8 6 -18 0 -88 68 -204 195 -123 136 -208 227 -289 312 l-68 72 48 57 c83
98 246 237 370 317 66 42 124 75 130 74 5 -1 73 -69 150 -152z"/>
<path d="M11471 7815 c-30 -14 -56 -23 -59 -20 -3 3 0 5 6 5 7 0 12 6 12 12 0
7 -11 0 -25 -15 -18 -19 -36 -27 -59 -27 -19 0 -39 -7 -46 -15 -7 -9 -34 -26
-59 -39 -215 -108 -583 -343 -588 -376 -1 -8 -7 -40 -14 -70 -6 -30 -9 -102
-7 -161 3 -102 4 -109 31 -137 19 -19 42 -31 68 -35 21 -3 53 -17 70 -31 39
-33 53 -29 59 14 4 25 15 41 39 57 56 38 65 30 35 -29 -24 -48 -25 -53 -9 -64
11 -9 26 -9 48 -3 18 5 48 9 67 9 34 0 34 0 12 -16 -35 -24 -45 -50 -30 -78
13 -24 137 -136 151 -136 4 0 10 7 14 16 4 10 -16 35 -63 79 l-69 64 28 26
c58 55 22 101 -69 88 l-46 -6 27 41 c29 45 30 85 2 90 -21 4 -108 -31 -148
-59 l-27 -19 -6 31 c-8 41 30 112 137 255 141 189 407 445 520 502 26 13 63
22 90 22 39 0 49 -4 63 -25 20 -30 34 -32 41 -5 3 11 10 17 15 14 20 -12 -13
35 -34 50 -34 24 -114 20 -177 -9z"/>
<path d="M11693 7669 c-20 -7 -23 -16 -23 -62 0 -30 8 -74 17 -98 14 -36 17
-81 17 -249 l1 -205 -33 -86 c-69 -180 -171 -296 -303 -344 -67 -24 -85 -43
-50 -52 l22 -6 -22 -20 c-21 -20 -22 -25 -15 -156 5 -92 15 -167 32 -234 14
-55 23 -102 20 -105 -6 -5 -135 57 -241 118 -38 22 -76 40 -84 40 -8 0 -24 9
-36 20 -11 10 -52 31 -90 46 -58 23 -91 28 -194 32 -114 4 -225 -9 -241 -28
-3 -3 -18 -14 -33 -23 -33 -21 -35 -64 -3 -59 15 3 17 0 11 -15 -4 -10 -10
-69 -12 -130 -5 -88 -3 -116 8 -129 11 -14 11 -18 2 -21 -20 -7 -16 -43 5 -43
38 1 69 48 42 65 -5 3 -10 17 -10 30 0 23 1 23 31 8 83 -42 179 38 179 150 0
24 -4 27 -33 27 -56 0 -84 50 -57 101 13 24 81 26 104 3 18 -17 21 -71 6 -94
-7 -11 -5 -17 8 -22 27 -10 72 -9 72 2 0 23 -33 87 -57 113 -25 25 -25 27 -7
27 36 0 137 -21 176 -37 41 -17 41 -13 16 -111 -15 -61 -91 -141 -173 -183
-62 -32 -77 -50 -55 -64 15 -9 126 54 180 102 53 47 100 130 100 175 0 15 5
28 10 28 15 0 55 -27 125 -83 33 -27 79 -60 103 -74 23 -14 42 -28 42 -32 0
-3 -37 -14 -82 -24 -165 -36 -452 -145 -555 -210 l-43 -27 -70 55 c-41 31 -77
52 -85 48 -23 -8 -18 -20 21 -50 20 -15 51 -40 68 -55 l31 -27 -29 -30 c-16
-17 -27 -33 -24 -36 2 -3 15 6 28 20 30 31 36 31 65 -2 21 -25 24 -26 31 -10
3 10 1 30 -5 44 -16 35 -8 42 122 106 123 60 275 113 437 152 122 29 145 30
193 10 29 -12 38 -23 46 -52 5 -21 26 -108 46 -193 47 -197 48 -200 80 -200
36 0 41 23 16 75 -12 25 -21 53 -21 62 0 10 -9 47 -21 83 -11 36 -28 104 -38
153 -17 87 -17 87 3 89 12 1 30 2 41 3 11 1 44 3 73 4 48 1 52 3 52 26 0 25
-1 25 -87 25 l-88 1 28 20 c21 16 27 29 27 59 0 21 -5 40 -12 42 -8 3 -5 13
10 33 24 30 29 81 10 88 -8 2 15 31 54 69 58 55 69 71 77 111 4 26 13 53 19
60 6 7 18 45 27 83 9 38 24 92 35 119 70 188 104 385 65 385 -10 0 -15 10 -15
30 0 17 -4 30 -9 30 -6 0 -10 8 -9 18 2 89 -7 339 -11 312 -6 -35 -6 -35 -24
26 -20 70 -22 105 -6 121 19 19 -2 42 -28 32z"/>
<path d="M11164 7409 c-64 -20 -94 -43 -78 -59 6 -6 29 -2 62 10 31 12 77 20
111 20 l59 0 36 -53 c72 -104 101 -236 94 -424 -3 -92 -7 -114 -28 -150 -14
-23 -21 -45 -17 -49 14 -14 41 10 65 56 20 40 22 59 22 180 0 80 -6 164 -15
205 -18 84 -71 196 -118 248 -31 33 -40 37 -83 36 -27 0 -77 -9 -110 -20z"/>
<path d="M9811 6971 c-15 -10 -15 -9 20 -139 12 -45 19 -86 15 -89 -3 -3 -33
15 -67 41 -62 49 -84 54 -103 24 -17 -27 8 -58 102 -127 45 -34 82 -66 82 -71
0 -22 -103 -7 -249 37 -120 36 -161 35 -246 -7 -48 -24 -97 -61 -158 -121 -78
-75 -87 -87 -72 -99 13 -11 19 -10 38 7 54 50 89 63 172 63 108 0 415 -49 467
-75 52 -25 87 -29 94 -8 4 10 20 48 36 84 31 69 33 105 8 103 -12 -1 -15 18
-15 100 0 134 -16 201 -60 249 -36 39 -42 42 -64 28z"/>
<path d="M10475 6920 c-10 -11 -25 -22 -35 -25 -23 -7 -36 -38 -54 -129 -17
-79 -11 -119 20 -143 13 -9 6 -15 -38 -35 l-53 -25 -13 24 c-13 25 -52 32 -52
10 0 -8 16 -46 35 -85 34 -70 36 -72 72 -72 21 0 74 12 118 26 44 14 104 28
132 31 62 7 182 -11 261 -38 57 -20 108 -24 128 -11 7 4 11 22 10 41 -1 26 -7
36 -26 43 -13 5 -75 38 -136 74 -125 72 -164 84 -209 60 -16 -9 -39 -16 -50
-16 -11 0 -44 -7 -73 -14 -28 -8 -50 -10 -47 -6 3 5 40 30 83 56 109 67 124
89 78 119 -22 15 -29 14 -82 -4 -33 -11 -61 -18 -63 -15 -2 2 1 36 6 76 6 40
9 74 8 76 -1 1 -10 -7 -20 -18z"/>
<path d="M12011 6001 c17 -22 39 -29 142 -49 280 -52 312 -55 312 -27 0 21
-42 35 -165 55 -30 5 -80 14 -110 19 -30 6 -87 14 -127 19 l-71 8 19 -25z"/>
<path d="M10044 5751 c-26 -9 -50 -23 -52 -31 -6 -17 102 -118 135 -126 11 -3
24 -15 27 -27 8 -29 7 -113 -1 -172 -6 -47 -7 -48 -67 -75 -77 -35 -257 -103
-261 -98 -2 2 -12 38 -23 81 l-20 78 55 25 c31 13 54 27 51 29 -3 3 -26 -4
-52 -15 -26 -11 -51 -20 -55 -20 -3 0 -11 19 -18 43 -6 23 -14 53 -18 66 -7
22 -6 23 24 17 82 -16 96 -17 81 -7 -8 5 -35 13 -62 16 -53 8 -65 17 -70 60
-4 43 -32 40 -36 -4 l-3 -33 -72 6 c-251 20 -605 17 -591 -5 3 -5 70 -7 157
-3 186 7 497 -10 509 -28 8 -13 40 -95 52 -133 4 -16 -3 -25 -37 -44 -23 -13
-98 -60 -167 -104 l-125 -79 -60 33 c-84 46 -156 92 -252 161 -76 56 -118 70
-118 41 0 -7 25 -30 55 -52 74 -53 268 -177 303 -192 36 -16 34 -24 -10 -53
-21 -14 -49 -35 -63 -46 l-25 -21 24 12 c14 6 46 27 73 47 l49 34 57 -30 c170
-89 335 -172 343 -172 5 0 9 8 9 18 0 14 -47 43 -180 113 -139 73 -177 96
-167 106 20 19 285 183 296 183 10 0 19 -27 51 -152 7 -26 19 -53 26 -59 14
-11 14 -11 28 35 4 14 304 136 334 136 9 0 72 -32 140 -70 68 -39 136 -73 153
-77 25 -5 29 -10 29 -37 0 -18 5 -37 10 -42 7 -7 6 -35 -2 -86 -11 -61 -18
-80 -38 -95 -24 -18 -240 -123 -253 -123 -4 0 -4 7 -1 15 4 8 3 22 0 31 -5 13
-9 13 -32 -5 -15 -12 -35 -21 -45 -21 -23 0 -24 -13 -3 -45 26 -39 41 -36 224
47 102 47 131 57 144 52 8 -3 18 1 22 8 16 25 42 232 32 257 -9 24 -1 138 11
145 5 4 248 -167 272 -191 6 -6 -27 -34 -95 -79 -58 -38 -106 -74 -106 -81 0
-27 24 -23 77 12 30 20 57 34 60 32 2 -3 -18 -45 -46 -94 -107 -190 -242 -543
-319 -833 -11 -41 -39 -165 -62 -274 -48 -232 -77 -330 -129 -435 -52 -103
-72 -137 -92 -149 -15 -9 -16 -6 -11 35 4 40 3 45 -14 41 -12 -2 -21 -16 -26
-40 -9 -46 -61 -163 -76 -172 -8 -5 -9 9 -5 43 8 73 2 84 -38 64 -17 -9 -39
-29 -48 -45 -55 -102 -101 -122 -576 -253 -126 -34 -306 -82 -400 -105 -261
-64 -372 -96 -605 -171 -118 -38 -264 -82 -325 -97 -92 -24 -110 -32 -110 -48
0 -13 7 -19 22 -19 13 0 22 -4 20 -10 -2 -12 2 -12 -102 16 -64 17 -110 22
-230 23 -134 1 -156 -2 -206 -22 -30 -12 -74 -38 -96 -57 -61 -52 -116 -155
-84 -155 6 0 26 10 46 21 35 21 44 22 228 15 195 -7 255 -14 385 -43 58 -13
74 -21 77 -37 8 -32 45 -230 45 -237 0 -4 -62 -9 -137 -11 -149 -5 -223 -24
-291 -76 -43 -32 -53 -53 -46 -90 6 -28 9 -30 29 -20 30 14 316 -6 453 -31 57
-10 104 -20 106 -22 10 -11 77 -191 73 -195 -3 -3 -34 -9 -69 -14 -103 -15
-190 -52 -258 -109 -27 -23 -32 -33 -23 -42 9 -9 21 -8 55 4 112 39 236 70
285 71 l54 1 38 -92 c21 -51 46 -104 55 -118 10 -15 16 -46 16 -84 0 -58 1
-60 33 -69 17 -6 131 -13 252 -16 l220 -6 42 -48 c50 -55 93 -135 93 -171 0
-15 7 -39 15 -54 14 -27 12 -32 -42 -125 -89 -154 -107 -177 -150 -190 -21 -6
-76 -14 -123 -18 -47 -4 -95 -11 -107 -15 -39 -15 -25 8 22 36 25 14 63 43 85
64 33 32 40 44 40 77 0 69 -135 268 -219 324 -48 31 -108 24 -216 -28 -48 -23
-96 -42 -106 -42 -24 0 -37 -29 -18 -41 19 -11 52 -2 131 37 91 46 144 57 179
38 66 -34 199 -226 199 -287 0 -29 -7 -39 -56 -75 -31 -23 -67 -42 -81 -42
-13 0 -26 -7 -30 -16 -5 -13 -14 -15 -45 -10 -22 4 -119 11 -216 16 -158 9
-177 12 -195 31 -10 11 -25 18 -33 15 -10 -4 -14 2 -14 20 0 14 -7 27 -17 31
-10 4 -23 13 -29 21 -7 9 -20 13 -33 9 -28 -7 -74 31 -92 75 -7 18 -23 49 -35
69 -12 20 -60 103 -105 185 -135 245 -322 515 -529 764 -57 69 -109 130 -115
136 -63 67 -253 281 -279 315 -44 58 -56 97 -56 181 0 54 -3 70 -16 75 -9 3
-20 0 -25 -8 -12 -19 -11 -166 1 -174 6 -3 10 -14 10 -23 -1 -14 -4 -13 -20 7
-11 13 -20 19 -20 15 0 -5 11 -21 25 -36 14 -15 25 -30 25 -34 0 -10 47 -63
52 -58 5 5 128 -130 143 -156 6 -12 5 -13 -6 -3 -7 7 -18 13 -23 13 -6 0 4
-10 21 -23 27 -19 115 -116 182 -202 17 -20 22 -24 18 -10 -24 72 339 -411
483 -643 64 -104 66 -109 43 -115 -12 -3 -13 -5 -3 -6 16 -1 27 -18 89 -136
101 -190 125 -228 155 -246 17 -10 39 -19 49 -19 11 0 17 -8 17 -25 0 -18 5
-25 20 -25 11 0 20 -4 20 -10 0 -5 11 -10 25 -10 17 0 29 -8 36 -24 11 -23 15
-24 128 -25 65 -1 151 -5 192 -11 41 -5 106 -10 146 -10 47 0 73 -4 75 -12 3
-9 50 -12 184 -10 177 3 179 3 199 28 11 13 40 46 64 72 23 26 55 65 69 87 15
22 37 53 49 68 20 25 23 40 23 111 0 79 -2 86 -39 143 -117 181 -156 203 -366
203 -150 0 -202 7 -155 22 21 6 21 7 -5 3 -16 -3 -58 -8 -93 -12 -76 -7 -91 6
-92 80 0 26 -4 47 -9 47 -5 0 -11 9 -14 21 -5 18 -2 20 16 14 38 -13 249 -17
322 -7 93 13 181 38 227 65 109 64 224 152 319 243 58 56 128 116 157 134 28
17 67 53 87 79 34 47 35 52 35 133 0 80 -37 291 -75 428 -8 30 -19 82 -25 115
-5 33 -18 93 -30 134 -12 47 -20 105 -20 157 0 84 -6 99 -34 88 -13 -5 -16
-25 -16 -114 l0 -108 -47 -30 c-27 -17 -99 -58 -162 -91 -165 -87 -190 -119
-111 -136 29 -6 61 1 248 58 62 19 114 32 116 28 13 -21 57 -254 50 -261 -5
-4 -49 -17 -99 -28 -178 -40 -201 -50 -178 -73 14 -14 198 -18 264 -6 l47 9
11 -64 c21 -119 16 -157 -26 -209 -21 -26 -60 -59 -88 -74 -27 -15 -90 -69
-140 -119 -85 -86 -281 -233 -344 -258 -79 -30 -183 -50 -276 -51 -117 -1
-142 5 -211 48 -46 29 -114 110 -114 136 0 5 -4 9 -8 9 -7 0 -52 83 -52 96 0
3 15 4 33 2 30 -3 32 -6 37 -48 3 -25 12 -56 19 -70 16 -30 51 -70 62 -70 4 0
46 -23 93 -51 71 -42 89 -49 101 -39 8 7 13 16 10 20 -3 4 -52 35 -109 69
-115 69 -136 97 -136 185 0 53 -18 73 -49 54 -28 -17 -51 3 -31 27 9 11 16 13
24 5 19 -19 32 -10 64 39 33 50 104 121 122 121 6 0 -3 -24 -20 -53 -16 -30
-30 -61 -30 -69 0 -17 -20 -28 -50 -28 -23 0 -33 -25 -15 -40 11 -9 23 -9 46
-1 59 21 69 16 69 -33 0 -53 28 -82 117 -117 50 -20 75 -23 180 -23 138 1 133
-1 248 98 66 56 84 85 59 93 -6 2 -51 -29 -100 -69 l-89 -73 -125 0 c-119 0
-128 1 -185 30 l-60 30 -3 53 c-3 51 -2 52 24 52 18 0 36 11 55 33 127 149
169 200 171 210 0 7 2 17 2 22 2 14 36 63 64 90 29 29 28 32 -10 70 -18 17
-97 112 -175 211 -165 208 -188 233 -205 216 -15 -15 -23 -2 115 -175 104
-131 126 -164 90 -136 -10 8 7 -14 37 -49 30 -34 60 -79 67 -98 12 -34 11 -37
-19 -67 -18 -18 -31 -35 -30 -39 1 -5 -6 -8 -17 -8 -30 0 -134 -49 -154 -73
-14 -17 -18 -18 -13 -4 4 13 0 17 -19 17 -14 0 -25 -4 -25 -9 0 -12 -76 -61
-95 -61 -9 0 -34 -20 -57 -45 -23 -25 -47 -45 -53 -45 -7 0 -20 -9 -30 -20
-10 -11 -22 -17 -27 -14 -6 4 -7 -2 -3 -15 4 -12 2 -21 -4 -21 -6 0 -10 20 -9
44 0 37 -5 49 -32 76 -18 17 -29 34 -25 38 4 4 13 -2 21 -12 16 -22 19 -15 5
12 -5 9 -13 28 -19 42 -23 58 -42 94 -42 83 0 -7 -6 -13 -14 -13 -33 0 -68
326 -44 411 6 22 4 28 -13 32 -16 4 -20 12 -17 38 3 31 5 33 46 36 23 1 77 14
120 29 42 14 102 32 132 40 30 8 61 21 70 28 21 19 200 73 500 151 140 37 275
73 300 80 25 7 119 33 210 58 91 25 188 53 215 61 28 7 57 14 65 14 8 0 26 3
40 6 14 3 37 8 52 12 15 3 26 10 25 16 -1 5 20 18 46 29 27 10 46 15 43 11 -3
-5 7 -7 22 -4 21 4 23 6 9 11 -17 6 -17 8 2 25 21 19 21 19 21 -6 0 -23 5 -27
47 -33 44 -6 49 -5 75 24 18 20 28 26 28 16 0 -9 9 -15 24 -15 27 0 71 66 152
230 56 112 128 316 120 337 -3 7 -2 13 2 13 4 0 8 21 9 48 3 51 49 278 88 432
59 230 234 691 271 713 7 4 30 40 51 80 46 83 104 165 118 166 6 1 24 -12 40
-29 17 -16 82 -81 145 -144 114 -112 116 -114 137 -97 18 15 19 20 8 32 -139
141 -201 202 -244 240 l-52 47 42 28 c23 16 65 50 93 75 99 88 171 137 216
146 41 8 45 11 48 42 2 18 -1 46 -7 62 -6 18 -6 31 0 35 5 3 14 -8 20 -25 8
-23 17 -31 35 -31 13 0 24 4 24 9 0 13 28 7 120 -24 133 -46 126 -45 124 -16
-2 14 -3 29 -3 33 -1 3 -25 11 -53 18 -29 6 -79 20 -110 32 -50 18 -56 22 -45
38 8 14 8 25 -1 44 -8 19 -8 26 1 30 7 3 0 14 -18 27 -16 13 -47 41 -67 62
-23 25 -43 37 -52 34 -8 -3 -44 7 -80 23 -35 16 -91 37 -123 46 -54 15 -62 15
-98 -1 -46 -19 -47 -16 52 -73 96 -55 198 -135 201 -160 4 -27 0 -27 -115 -2
-114 25 -300 42 -418 38 -73 -2 -90 1 -91 12 -1 8 -2 21 -3 28 -2 24 -30 11
-36 -17 -6 -26 -12 -31 -51 -37 -59 -8 -66 -23 -9 -16 42 4 45 3 44 -19 0 -13
-8 -55 -18 -94 -15 -65 -18 -70 -41 -67 l-25 3 22 -15 c18 -13 21 -23 16 -54
-12 -75 -31 -78 -128 -21 -39 23 -101 57 -138 76 l-68 34 7 115 7 115 63 61
c35 34 64 65 64 70 0 5 -10 13 -22 19 -13 5 -34 16 -47 24 -22 12 -29 12 -53
-3 -26 -15 -32 -15 -73 -1 -40 15 -48 15 -91 0z m1011 -255 c145 -27 190 -39
203 -55 16 -20 16 -91 -1 -91 -7 0 -71 -44 -142 -97 -207 -156 -243 -177 -264
-161 -11 7 -74 53 -142 102 -68 49 -127 92 -131 95 -4 4 -4 22 1 41 5 19 17
71 27 114 l17 79 176 -6 c97 -3 212 -12 256 -21z m-1985 -4712 c34 -68 27
-112 -29 -196 -27 -40 -69 -91 -92 -113 l-42 -40 21 35 c101 172 112 193 112
223 -1 42 -23 145 -39 177 -9 19 -5 17 19 -10 17 -19 39 -53 50 -76z"/>
<path d="M8695 5478 c-6 -20 -53 -260 -70 -368 -22 -130 -32 -510 -15 -578 11
-48 10 -54 -10 -82 -28 -39 -17 -54 13 -17 l22 27 40 -65 c22 -36 80 -127 128
-202 49 -76 98 -155 110 -175 21 -39 43 -49 53 -24 6 15 -28 75 -116 206 -33
49 -87 139 -121 200 -70 129 -75 104 55 237 49 51 86 96 82 100 -4 4 -49 -35
-101 -88 -91 -94 -93 -95 -110 -75 -15 19 -17 39 -11 196 6 190 22 326 60 520
34 171 35 194 13 198 -9 2 -19 -2 -22 -10z"/>
<path d="M12130 5180 c0 -27 6 -33 48 -51 26 -12 52 -22 57 -23 6 -1 21 -8 35
-16 14 -8 28 -13 33 -12 4 1 7 -2 7 -7 0 -5 17 -15 38 -22 20 -7 56 -23 79
-36 23 -12 49 -23 57 -23 9 0 16 -4 16 -10 0 -5 7 -10 15 -10 8 0 15 -5 15
-11 0 -5 5 -7 10 -4 6 3 10 2 10 -4 0 -5 13 -12 30 -16 16 -4 33 -11 36 -17 9
-14 96 -68 110 -68 16 0 23 44 8 57 -6 7 -15 9 -18 6 -3 -4 -6 -1 -6 5 0 7 -5
12 -10 12 -6 0 -29 14 -52 30 -22 17 -45 30 -51 30 -5 0 -31 13 -57 29 -27 17
-56 31 -67 33 -10 2 -20 6 -23 9 -9 11 -251 122 -270 124 -3 0 -15 6 -27 13
-22 12 -23 11 -23 -18z"/>
<path d="M3345 4758 c-2 -7 -6 -24 -8 -38 -3 -14 -16 -52 -30 -85 l-25 -60 -3
-441 -4 -441 30 -44 c17 -24 33 -55 36 -69 7 -25 7 -24 8 4 1 22 5 27 17 22
10 -4 25 1 34 9 21 19 25 14 35 -40 10 -57 32 -95 55 -95 17 0 20 -7 20 -47 0
-37 -3 -44 -12 -35 -7 7 -16 12 -22 12 -5 0 -3 -6 6 -12 8 -7 18 -28 21 -45 4
-18 18 -51 33 -73 21 -31 33 -40 55 -40 38 0 38 26 2 81 -22 34 -24 42 -12 50
11 7 11 9 -3 9 -16 0 -18 14 -18 153 0 156 -6 185 -34 174 -13 -5 -16 -23 -16
-99 0 -152 -36 -67 -46 107 -3 55 -10 109 -15 120 -5 11 -10 49 -11 85 -2 52
-6 65 -20 68 -17 3 -18 -10 -18 -168 0 -153 -2 -171 -16 -168 -9 2 -25 19 -35
38 -18 32 -19 64 -19 460 l0 425 26 60 c14 33 28 70 31 83 8 34 -31 72 -42 40z"/>
<path d="M5950 4458 c-27 -63 -41 -161 -38 -268 3 -89 4 -95 24 -94 20 0 22
-6 27 -85 6 -97 6 -98 187 -651 139 -422 172 -530 164 -530 -2 0 -32 14 -65
31 -137 69 -317 119 -375 105 -25 -7 -24 -8 32 -48 33 -22 100 -75 149 -118
50 -42 137 -107 195 -145 58 -37 109 -73 113 -79 22 -31 -30 -159 -100 -245
l-20 -24 -74 50 c-177 120 -377 226 -504 270 -81 28 -260 47 -347 37 -40 -5
-63 -13 -77 -28 l-21 -22 162 -81 c90 -44 202 -109 250 -144 48 -35 122 -89
165 -121 43 -31 117 -86 166 -123 l87 -67 -86 -91 c-48 -51 -105 -116 -127
-145 -21 -28 -44 -52 -49 -52 -5 0 -47 23 -94 51 -242 146 -544 220 -661 162
-44 -21 -56 -52 -23 -60 11 -3 27 -18 35 -34 12 -22 53 -46 187 -113 188 -92
398 -212 398 -227 0 -5 -20 -40 -45 -78 -25 -38 -45 -71 -45 -74 0 -4 -13 -35
-30 -69 -40 -82 -42 -154 -5 -168 14 -5 25 -13 25 -18 0 -16 110 -130 173
-180 79 -63 147 -97 225 -113 l62 -13 69 37 c76 41 99 44 176 22 71 -21 121
-59 191 -146 103 -127 112 -135 124 -123 16 16 2 41 -72 132 -70 86 -52 81 50
-15 87 -80 101 -116 77 -198 -16 -56 -40 -82 -131 -143 -50 -33 -67 -40 -88
-34 -27 7 -25 9 42 55 74 50 162 137 162 159 0 23 -18 41 -34 35 -9 -4 -16
-15 -16 -24 0 -37 -249 -223 -298 -223 -8 0 12 27 44 60 33 33 65 60 72 60 17
0 15 31 -8 92 -23 62 -83 125 -149 158 -56 28 -113 23 -234 -20 -59 -21 -104
-30 -146 -30 -53 0 -61 -2 -61 -19 0 -42 86 -41 215 4 55 19 119 35 143 35 78
0 161 -61 187 -136 13 -38 12 -39 -27 -86 -60 -72 -88 -88 -186 -104 -48 -8
-95 -19 -104 -24 -40 -23 -253 -45 -402 -43 l-149 3 -41 34 c-23 19 -104 92
-182 163 -77 70 -211 190 -297 266 -95 85 -154 144 -151 152 4 8 -10 24 -34
39 -69 43 -82 68 -82 155 0 64 5 86 30 139 56 119 63 159 57 331 -6 172 -29
279 -102 477 -64 173 -88 208 -257 370 -422 406 -576 590 -669 804 -34 76 -69
186 -84 263 -6 30 -32 37 -42 10 -4 -9 1 -46 10 -82 10 -36 17 -76 17 -87 0
-58 116 -277 222 -419 71 -95 258 -291 331 -348 20 -16 36 -32 35 -35 -4 -13
23 -52 35 -52 8 0 7 4 -3 10 -8 5 -12 11 -10 14 3 2 36 -25 73 -61 38 -35 67
-67 64 -69 -3 -3 -28 17 -55 45 -28 28 -54 51 -59 51 -4 0 14 -20 40 -43 33
-31 47 -51 47 -71 0 -14 36 -100 79 -189 98 -203 114 -269 115 -462 1 -144
-14 -232 -41 -242 -7 -3 -13 -9 -13 -14 0 -6 -9 -23 -20 -39 -11 -17 -29 -43
-40 -60 -24 -35 -27 -90 -5 -90 11 0 15 -11 15 -39 0 -30 10 -52 43 -97 46
-61 293 -301 307 -297 4 1 16 -7 26 -19 19 -21 19 -21 -3 -9 -33 17 -28 9 10
-19 18 -14 26 -16 18 -7 -7 9 -10 17 -6 17 10 0 154 -132 152 -140 -1 -3 25
-31 58 -60 33 -30 89 -81 125 -115 36 -33 86 -78 111 -101 141 -130 224 -194
251 -194 23 0 28 4 28 23 0 13 -5 28 -11 34 -17 17 349 17 370 0 12 -9 13 -9
7 0 -4 7 -6 13 -4 14 44 8 215 28 249 29 25 0 49 4 55 10 5 5 36 12 69 16 53
6 58 5 48 -8 -11 -13 -5 -15 44 -17 53 -2 60 1 140 54 144 97 186 161 133 198
-25 17 -17 45 13 49 14 2 23 11 25 25 8 52 -53 120 -271 302 -17 14 -57 22
-189 37 -32 4 -48 11 -48 20 0 7 -24 27 -52 43 -29 17 -62 37 -73 46 -11 9
-31 18 -45 21 -14 2 -38 9 -55 15 -38 14 -109 28 -114 24 -2 -2 8 -6 23 -10
81 -17 81 -19 -4 -27 -47 -5 -111 -10 -143 -11 -55 -3 -60 -1 -73 25 -8 14
-19 30 -25 34 -6 3 -3 -6 7 -22 l18 -29 -22 19 c-12 10 -36 41 -53 68 l-32 49
51 102 c28 56 59 114 69 128 10 15 34 51 54 80 20 30 47 65 60 79 56 60 78 91
72 105 -3 9 17 42 50 83 63 76 216 229 196 195 -8 -13 -17 -23 -21 -23 -4 0
-12 -10 -19 -22 -14 -28 11 -1 133 144 101 119 178 226 178 248 0 8 10 26 21
40 l20 25 -2 -25 c-2 -45 1 -50 31 -50 28 0 30 3 30 34 0 19 -4 37 -9 41 -6 3
-12 27 -16 53 -16 134 -29 206 -52 297 -31 127 -85 312 -117 401 -13 38 -72
217 -131 399 l-106 329 2 175 c2 112 -1 176 -8 178 -18 6 -33 -24 -42 -83 -8
-58 -9 -57 -10 38 -1 103 12 189 35 225 20 32 17 53 -7 53 -14 0 -26 -12 -39
-42z m-1410 -2253 c44 -93 111 -296 135 -410 11 -51 18 -128 18 -215 0 -114
-3 -144 -21 -195 -12 -33 -31 -66 -42 -74 -11 -7 -20 -22 -20 -33 0 -11 -9
-31 -20 -45 -18 -23 -19 -28 -5 -43 8 -9 15 -34 15 -56 l-1 -39 -25 30 c-14
17 -41 53 -60 82 -29 45 -34 61 -34 112 0 49 7 74 43 148 l42 88 0 190 c0 175
-2 197 -27 286 -15 53 -54 153 -87 221 -34 69 -61 129 -61 134 0 4 25 -16 56
-46 38 -38 67 -80 94 -135z m1505 -1177 c35 -24 65 -46 65 -50 0 -4 -28 -22
-62 -39 -74 -37 -125 -36 -210 7 -57 28 -142 93 -134 101 12 13 79 21 174 22
l102 1 65 -42z"/>
<path d="M9001 4041 c-6 -11 -11 -77 -11 -151 0 -109 3 -132 16 -137 8 -3 19
-2 24 3 5 5 10 74 11 154 2 126 0 145 -14 148 -9 2 -20 -6 -26 -17z"/>
<path d="M9075 3857 c-3 -12 -5 -58 -3 -102 3 -78 4 -80 28 -80 22 0 27 -7 41
-65 10 -41 21 -65 30 -65 23 0 22 43 -2 126 -18 63 -27 79 -42 79 -16 0 -18 7
-17 53 1 28 1 58 1 65 -2 21 -30 13 -36 -11z"/>
<path d="M6737 3044 c-4 -4 -7 -31 -7 -59 0 -63 -27 -129 -101 -247 -29 -46
-72 -130 -95 -188 -24 -57 -47 -106 -51 -107 -4 -2 -6 -30 -5 -62 l4 -59 38
-4 c31 -3 36 -1 28 9 -6 7 -10 37 -10 66 0 63 54 204 113 299 22 35 57 98 80
141 36 72 40 84 37 144 -3 61 -14 84 -31 67z"/>
<path d="M4825 1398 c-4 -17 -20 -62 -36 -99 -21 -48 -29 -84 -29 -125 l0 -58
78 -78 c50 -50 86 -78 100 -78 12 0 22 5 22 11 0 6 -37 46 -81 89 -82 77 -82
78 -77 121 3 24 19 76 37 116 36 84 41 133 12 133 -14 0 -22 -10 -26 -32z"/>
</g>
</svg>
